<?xml version="1.0" encoding="utf-8"?>
<!-- Generator: Adobe Illustrator 21.0.0, SVG Export Plug-In . SVG Version: 6.00 Build 0)  -->
<svg version="1.1" id="Layer_1" xmlns="http://www.w3.org/2000/svg" xmlns:xlink="http://www.w3.org/1999/xlink" x="0px" y="0px"
	 viewBox="0 0 195 266.9" style="enable-background:new 0 0 195 266.9;" xml:space="preserve">
<style type="text/css">
	.st0{fill:#050249;}
</style>
<g>
	<path class="st0" d="M9.1,86.4c0-8.3,1.4-16,4.3-23.4c2.9-7.3,6.8-13.7,11.9-19.1c5-5.4,10.9-10.1,17.4-14.1c6.6-4,13.7-7,21.2-9
		c7.6-2,15.3-3,23.2-3c12.1,0,23.3,2.5,33.7,7.6c10.4,5.1,18.9,12.5,25.4,22.2c6.5,9.7,9.8,20.7,9.8,32.9c0,7.3-0.7,14.5-2.2,21.6
		c-1.5,7-3.7,13.8-6.9,20.3c-3.1,6.5-7,12.2-11.5,17.2c-4.5,4.9-10.1,8.9-16.6,11.8c-6.6,2.9-13.8,4.4-21.7,4.4
		c-5.2,0-10.4-1.2-15.5-3.7c-5.1-2.4-8.8-5.8-11-10.1c-0.8,3-1.8,7.3-3.2,12.9c-1.4,5.6-2.3,9.3-2.7,10.9c-0.4,1.6-1.2,4.4-2.4,8.1
		c-1.1,3.8-2.1,6.5-3,8.1c-0.8,1.6-2.1,4-3.7,7.2c-1.6,3.1-3.4,6.1-5.3,8.9c-1.9,2.8-4.3,6.1-7.1,9.9l-1.6,0.6l-1-1.1
		c-1.1-12-1.7-19.2-1.7-21.6c0-7,0.8-14.9,2.5-23.7c1.6-8.8,4.2-19.8,7.6-33c3.4-13.2,5.4-21,6-23.3c-2.4-5-3.7-11.4-3.7-19.4
		c0-6.3,2-12.3,6-17.9c4-5.6,9-8.4,15.1-8.4c4.7,0,8.3,1.5,10.9,4.6c2.6,3.1,3.9,7,3.9,11.8c0,5.1-1.7,12.4-5,21.9
		c-3.4,9.6-5,16.7-5,21.5c0,4.8,1.7,8.8,5.2,12c3.4,3.2,7.6,4.8,12.5,4.8c4.2,0,8.1-1,11.7-2.9c3.6-1.9,6.6-4.5,9-7.8
		c2.4-3.3,4.6-6.9,6.4-10.9c1.9-4,3.3-8.2,4.4-12.7c1-4.5,1.8-8.7,2.3-12.7c0.5-4,0.7-7.8,0.7-11.4c0-13.2-4.2-23.5-12.6-30.9
		c-8.4-7.4-19.3-11.1-32.8-11.1c-15.3,0-28.1,5-38.3,14.9C35.5,61.4,30.3,74,30.3,89.2c0,3.4,0.5,6.6,1.4,9.8c1,3.1,2,5.6,3.1,7.5
		c1.1,1.8,2.1,3.6,3.1,5.2c1,1.6,1.4,2.8,1.4,3.5c0,2.1-0.6,4.9-1.7,8.4c-1.1,3.4-2.6,5.2-4.2,5.2c-0.2,0-0.8-0.1-2-0.3
		c-3.9-1.1-7.4-3.3-10.4-6.4c-3-3.1-5.4-6.8-7-10.8c-1.6-4.1-2.9-8.2-3.7-12.4C9.5,94.5,9.1,90.4,9.1,86.4z"/>
</g>
</svg>
