<?xml version="1.0" encoding="utf-8"?>
<!-- Generator: Adobe Illustrator 21.0.0, SVG Export Plug-In . SVG Version: 6.00 Build 0)  -->
<svg version="1.1" id="Layer_1" xmlns="http://www.w3.org/2000/svg" xmlns:xlink="http://www.w3.org/1999/xlink" x="0px" y="0px"
	 viewBox="0 0 266.9 266.9" style="enable-background:new 0 0 266.9 266.9;" xml:space="preserve">
<g>
	<path d="M242.4,65.1c0,6.4-2,12.6-6,18.4c-4,5.9-9,10.9-14.9,15c-30.6,21.3-49.7,34.5-57.2,39.7c-0.8,0.6-2.5,1.8-5.2,3.7
		c-2.6,1.9-4.8,3.5-6.6,4.6c-1.8,1.2-3.9,2.5-6.4,4c-2.5,1.5-4.8,2.6-7,3.3c-2.2,0.7-4.2,1.1-6.1,1.1H133h-0.1
		c-1.9,0-3.9-0.4-6.1-1.1c-2.2-0.7-4.5-1.8-7-3.3c-2.5-1.5-4.6-2.8-6.4-4c-1.8-1.2-4-2.7-6.6-4.6c-2.6-1.9-4.4-3.2-5.2-3.7
		c-7.4-5.2-18.1-12.6-32-22.3c-13.9-9.6-22.3-15.5-25-17.4c-5-3.4-9.8-8.1-14.3-14.1c-4.5-6-6.7-11.5-6.7-16.7
		c0-6.4,1.7-11.6,5.1-15.9c3.4-4.2,8.2-6.4,14.5-6.4h179.8c5.3,0,9.9,1.9,13.7,5.7C240.5,55.2,242.4,59.8,242.4,65.1z M242.4,101v97
		c0,5.4-1.9,10-5.7,13.8c-3.8,3.8-8.4,5.7-13.8,5.7H43.1c-5.4,0-10-1.9-13.8-5.7c-3.8-3.8-5.7-8.4-5.7-13.8v-97
		c3.6,4,7.7,7.5,12.3,10.6c29.5,20,49.7,34.1,60.7,42.1c4.6,3.4,8.4,6.1,11.3,8c2.9,1.9,6.7,3.9,11.5,5.9c4.8,2,9.3,3,13.4,3h0.1
		h0.1c4.2,0,8.6-1,13.4-3c4.8-2,8.7-3.9,11.5-5.9c2.9-1.9,6.7-4.6,11.3-8c13.8-10,34.1-24.1,60.8-42.1
		C234.9,108.5,238.9,104.9,242.4,101z"/>
</g>
</svg>
