<?xml version="1.0" encoding="utf-8"?>
<!-- Generator: Adobe Illustrator 21.0.0, SVG Export Plug-In . SVG Version: 6.00 Build 0)  -->
<svg version="1.1" id="Layer_1" xmlns="http://www.w3.org/2000/svg" xmlns:xlink="http://www.w3.org/1999/xlink" x="0px" y="0px"
	 viewBox="0 0 266.9 266.9" style="enable-background:new 0 0 266.9 266.9;" xml:space="preserve">
<g>
	<path fill="#050249" d="M87.1,235C181.4,235,233,156.8,233,89.1c0-2.2,0-4.4-0.1-6.6c10-7.2,18.7-16.3,25.6-26.6c-9.2,4.1-19.1,6.8-29.5,8.1
		c10.6-6.3,18.7-16.4,22.6-28.4c-9.9,5.9-20.9,10.1-32.6,12.4c-9.4-10-22.7-16.2-37.4-16.2c-28.3,0-51.3,23-51.3,51.3
		c0,4,0.5,7.9,1.3,11.7C89,92.7,51.2,72.2,25.9,41.2C21.5,48.8,19,57.6,19,67c0,17.8,9.1,33.5,22.8,42.7c-8.4-0.3-16.3-2.6-23.2-6.4
		c0,0.2,0,0.4,0,0.7c0,24.8,17.7,45.6,41.1,50.3c-4.3,1.2-8.8,1.8-13.5,1.8c-3.3,0-6.5-0.3-9.6-0.9c6.5,20.4,25.5,35.2,47.9,35.6
		c-17.6,13.8-39.7,22-63.7,22c-4.1,0-8.2-0.2-12.2-0.7C31.2,226.5,58.2,235,87.1,235"/>
</g>
</svg>
