<?xml version="1.0" encoding="utf-8"?>
<!-- Generator: Adobe Illustrator 21.0.0, SVG Export Plug-In . SVG Version: 6.00 Build 0)  -->
<svg version="1.1" id="Layer_1" xmlns="http://www.w3.org/2000/svg" xmlns:xlink="http://www.w3.org/1999/xlink" x="0px" y="0px"
	 viewBox="0 0 16 12.7" style="enable-background:new 0 0 16 12.7;" xml:space="preserve">
<path d="M15.9,6.6l-0.6,0.7c-0.1,0.1-0.1,0.1-0.2,0.1h0c-0.1,0-0.2,0-0.2-0.1L8,1.7L1.1,7.4C1.1,7.5,1,7.5,0.9,7.5
	c-0.1,0-0.2,0-0.2-0.1L0.1,6.6C0,6.6,0,6.5,0,6.4c0-0.1,0-0.2,0.1-0.2l7.1-5.9C7.5,0.1,7.7,0,8,0c0.3,0,0.5,0.1,0.8,0.3l2.4,2V0.3
	c0-0.1,0-0.2,0.1-0.2C11.3,0.1,11.4,0,11.5,0h1.9c0.1,0,0.2,0,0.2,0.1c0.1,0.1,0.1,0.1,0.1,0.2v4l2.2,1.8C16,6.3,16,6.3,16,6.4
	C16,6.5,16,6.6,15.9,6.6z M13.7,7.3v4.8c0,0.2-0.1,0.3-0.2,0.4c-0.1,0.1-0.3,0.2-0.4,0.2H9.3V8.9H6.7v3.8H2.9
	c-0.2,0-0.3-0.1-0.4-0.2c-0.1-0.1-0.2-0.3-0.2-0.4V7.3c0,0,0,0,0,0c0,0,0,0,0,0L8,2.6L13.7,7.3C13.7,7.3,13.7,7.3,13.7,7.3z"/>
</svg>
