<?xml version="1.0" encoding="utf-8"?>
<!-- Generator: Adobe Illustrator 21.0.0, SVG Export Plug-In . SVG Version: 6.00 Build 0)  -->
<svg version="1.1" xmlns="http://www.w3.org/2000/svg" xmlns:xlink="http://www.w3.org/1999/xlink" x="0px" y="0px"
	 viewBox="0 0 24 24" xml:space="preserve">

<style type="text/css">
	.icon--svg{
		fill:#fff;
	}
</style>

<path class="icon--svg" d="M12,22.5C6.2,22.5,1.5,17.8,1.5,12C1.5,6.2,6.2,1.5,12,1.5c5.8,0,10.5,4.7,10.5,10.5
C22.5,17.8,17.8,22.5,12,22.5z M12,2.5c-5.2,0-9.5,4.3-9.5,9.5s4.3,9.5,9.5,9.5s9.5-4.3,9.5-9.5S17.2,2.5,12,2.5z M15,11.7
c0,0.1,0,0.2-0.1,0.2l-4.7,4.7c-0.1,0.1-0.1,0.1-0.2,0.1c-0.1,0-0.2,0-0.2-0.1l-0.5-0.5c-0.1-0.1-0.1-0.1-0.1-0.2s0-0.2,0.1-0.2
l3.9-3.9L9.2,7.8C9.2,7.7,9.1,7.6,9.1,7.5s0-0.2,0.1-0.2l0.5-0.5C9.8,6.7,9.9,6.7,10,6.7c0.1,0,0.2,0,0.2,0.1l4.7,4.7
C14.9,11.5,15,11.6,15,11.7z"/>
</svg>
