<svg width="303px" height="38px" viewBox="0 0 303 38" version="1.1" xmlns="http://www.w3.org/2000/svg" xmlns:xlink="http://www.w3.org/1999/xlink">
    <g id="ucsf-dc-logo" stroke="none" stroke-width="1" fill="none" fill-rule="evenodd">
        <g id="logo" fill-rule="nonzero" fill="#007CBE">
            <path d="M77.1221,16.2285 L77.1221,11.5825 L59.4501,11.5825 L59.4501,28.7005 C59.3541,26.6965 58.6211,25.1395 57.2351,24.0445 C56.2741,23.2885 54.8381,22.6845 52.9161,22.2325 L48.5331,21.1985 C46.8441,20.8025 45.7371,20.4595 45.2151,20.1665 C44.7361,19.9055 44.4021,19.5665 44.2041,19.1485 C44.2011,19.1465 44.2011,19.1445 44.2011,19.1405 C44.0721,18.8535 43.9961,18.5225 43.9961,18.1645 C43.9961,17.3995 44.2601,16.7475 44.8021,16.2355 L44.8031,16.2345 C44.8141,16.2245 44.8251,16.2125 44.8391,16.2015 L44.8411,16.2015 C44.8411,16.1985 44.8411,16.1985 44.8411,16.2015 C44.9581,16.0915 45.0881,15.9905 45.2311,15.8965 C46.0581,15.3525 47.1551,15.0825 48.5331,15.0825 C49.7711,15.0825 50.8081,15.2905 51.6431,15.7095 C52.8931,16.3405 53.5641,17.4105 53.6581,18.9115 L58.6731,18.9115 C58.5831,16.2565 57.5961,14.2325 55.7131,12.8375 C53.8301,11.4415 51.5621,10.7445 48.8941,10.7445 C45.7041,10.7445 43.2861,11.4845 41.6401,12.9635 C40.6261,13.8735 39.9291,14.9275 39.5401,16.1245 L39.5371,16.1245 C39.4521,16.3805 39.3811,16.6475 39.3261,16.9175 C38.7171,19.7995 36.8611,21.7545 33.7621,21.7545 C28.7961,21.7545 26.9321,17.5305 26.9321,13.3425 C26.9321,8.9415 28.7961,4.7195 33.7621,4.7195 C36.5031,4.7195 38.8971,6.6195 39.2491,9.1185 L44.6031,9.1185 C43.9331,3.3115 39.2851,0.0715 33.7621,0.0715 C26.3421,0.0715 21.8401,5.3555 21.4371,12.3175 L21.4371,0.6705 L15.9101,0.6705 L15.9101,16.2995 C15.9101,20.0305 14.6431,21.7545 10.7021,21.7545 C6.2321,21.7545 5.5271,19.0445 5.5271,16.2995 L5.5271,0.6705 L0.0001,0.6705 L0.0001,16.2995 C0.0001,23.1285 3.9411,26.4025 10.7021,26.4025 C17.4261,26.4025 21.4371,23.0935 21.4371,16.2995 L21.4371,14.3405 C21.8401,21.1185 26.3421,26.4025 33.7621,26.4025 C36.8091,26.4025 39.4071,25.4185 41.3261,23.6665 C41.4441,23.7635 41.5671,23.8545 41.6951,23.9425 C42.6901,24.6315 44.5151,25.2715 47.1711,25.8575 L49.8781,26.4515 C51.4581,26.7915 52.6111,27.1795 53.3461,27.6215 C54.0721,28.0725 54.4361,28.7105 54.4361,29.5355 C54.4361,30.9475 53.6921,31.9145 52.2061,32.4335 C51.4231,32.7035 50.4021,32.8385 49.1421,32.8385 C47.0441,32.8385 45.5601,32.3265 44.6981,31.2965 C44.2251,30.7325 43.9051,29.8805 43.7461,28.7385 L38.7631,28.7385 C38.7631,31.3365 39.7061,33.3795 41.5911,34.8645 C43.4731,36.3505 46.0591,37.0915 49.3481,37.0915 C52.5671,37.0915 55.0601,36.3385 56.8221,34.8305 C58.4451,33.4425 59.3181,31.7275 59.4501,29.6875 L59.4501,36.7155 L64.9771,36.7155 L64.9771,26.3325 L75.5011,26.3325 L75.5011,22.0365 L64.9771,22.0365 L64.9771,16.2285 L77.1221,16.2285 Z" id="Fill-1"></path>
            <path d="M95.2451,35.2954 C97.1731,35.2954 98.8321,35.0884 100.2221,34.6754 C101.6111,34.2624 102.7571,33.6054 103.6581,32.7044 C104.5591,31.8024 105.2231,30.6384 105.6491,29.2114 C106.0741,27.7834 106.2881,26.0684 106.2881,24.0654 C106.2881,22.0624 106.0741,20.3464 105.6491,18.9194 C105.2231,17.4914 104.5591,16.3274 103.6581,15.4264 C102.7571,14.5244 101.6111,13.8674 100.2221,13.4544 C98.8321,13.0414 97.1731,12.8344 95.2451,12.8344 L89.7991,12.8344 L89.7991,35.2954 L95.2451,35.2954 Z M96.5211,10.6554 C100.6031,10.7564 103.6771,11.9014 105.7431,14.0924 C107.8081,16.2844 108.8421,19.6084 108.8421,24.0654 C108.8421,28.5224 107.8081,31.8464 105.7431,34.0374 C103.6771,36.2284 100.6031,37.3744 96.5211,37.4744 L87.2441,37.4744 L87.2441,10.6554 L96.5211,10.6554 Z" id="Fill-3"></path>
            <path d="M125.2363,23.8398 C124.9483,23.0128 124.5423,22.2808 124.0153,21.6418 C123.4903,21.0038 122.8513,20.4908 122.1003,20.1028 C121.3493,19.7148 120.4983,19.5198 119.5463,19.5198 C118.5693,19.5198 117.7063,19.7148 116.9543,20.1028 C116.2033,20.4908 115.5643,21.0038 115.0393,21.6418 C114.5123,22.2808 114.0933,23.0198 113.7803,23.8588 C113.4673,24.6978 113.2603,25.5548 113.1613,26.4308 L125.7063,26.4308 C125.6803,25.5298 125.5243,24.6658 125.2363,23.8398 M113.5173,31.0698 C113.7563,31.9848 114.1373,32.8038 114.6633,33.5298 C115.1893,34.2568 115.8523,34.8578 116.6543,35.3328 C117.4553,35.8088 118.4203,36.0468 119.5463,36.0468 C121.2743,36.0468 122.6263,35.5958 123.6023,34.6948 C124.5793,33.7928 125.2563,32.5908 125.6313,31.0888 L127.9973,31.0888 C127.4963,33.2928 126.5763,34.9948 125.2363,36.1968 C123.8963,37.3988 122.0003,37.9998 119.5463,37.9998 C118.0183,37.9998 116.6973,37.7308 115.5843,37.1928 C114.4683,36.6538 113.5613,35.9158 112.8603,34.9768 C112.1593,34.0368 111.6393,32.9478 111.3013,31.7088 C110.9643,30.4688 110.7953,29.1608 110.7953,27.7838 C110.7953,26.5068 110.9643,25.2548 111.3013,24.0268 C111.6393,22.8008 112.1593,21.7048 112.8603,20.7408 C113.5613,19.7778 114.4683,19.0008 115.5843,18.4118 C116.6973,17.8238 118.0183,17.5288 119.5463,17.5288 C121.0983,17.5288 122.4253,17.8428 123.5273,18.4678 C124.6293,19.0948 125.5243,19.9148 126.2133,20.9288 C126.9013,21.9428 127.3963,23.1078 127.6973,24.4218 C127.9973,25.7358 128.1223,27.0698 128.0723,28.4218 L113.1613,28.4218 C113.1613,29.2738 113.2793,30.1558 113.5173,31.0698" id="Fill-5"></path>
            <path d="M133.5937,18.0928 L133.5937,21.4358 L133.6687,21.4358 C134.1197,20.2598 134.9207,19.3138 136.0727,18.5998 C137.2247,17.8858 138.4897,17.5298 139.8667,17.5298 C141.2187,17.5298 142.3517,17.7048 143.2657,18.0548 C144.1797,18.4058 144.9117,18.9008 145.4627,19.5388 C146.0137,20.1768 146.4027,20.9608 146.6277,21.8858 C146.8527,22.8128 146.9657,23.8528 146.9657,25.0038 L146.9657,37.4738 L144.5997,37.4738 L144.5997,25.3798 C144.5997,24.5528 144.5247,23.7828 144.3737,23.0698 C144.2237,22.3558 143.9607,21.7368 143.5847,21.2108 C143.2097,20.6848 142.7017,20.2718 142.0647,19.9708 C141.4257,19.6708 140.6297,19.5198 139.6787,19.5198 C138.7267,19.5198 137.8817,19.6888 137.1437,20.0278 C136.4047,20.3648 135.7787,20.8288 135.2657,21.4168 C134.7517,22.0058 134.3517,22.7068 134.0637,23.5208 C133.7757,24.3348 133.6187,25.2168 133.5937,26.1688 L133.5937,37.4738 L131.2277,37.4738 L131.2277,18.0928 L133.5937,18.0928 Z" id="Fill-7"></path>
            <path d="M158.3838,18.0928 L158.3838,20.0838 L154.4408,20.0838 L154.4408,33.1548 C154.4408,33.9308 154.5468,34.5388 154.7598,34.9768 C154.9718,35.4148 155.5038,35.6588 156.3558,35.7088 C157.0318,35.7088 157.7078,35.6718 158.3838,35.5958 L158.3838,37.5868 C158.0328,37.5868 157.6828,37.5988 157.3328,37.6248 C156.9818,37.6488 156.6308,37.6618 156.2808,37.6618 C154.7028,37.6618 153.6018,37.3558 152.9758,36.7418 C152.3498,36.1288 152.0488,34.9948 152.0738,33.3428 L152.0738,20.0838 L148.6938,20.0838 L148.6938,18.0928 L152.0738,18.0928 L152.0738,12.2708 L154.4408,12.2708 L154.4408,18.0928 L158.3838,18.0928 Z" id="Fill-9"></path>
            <path d="M173.3691,26.8818 C173.2191,27.1578 172.9311,27.3578 172.5061,27.4828 C172.0791,27.6088 171.7041,27.6958 171.3791,27.7458 C170.3771,27.9218 169.3441,28.0778 168.2801,28.2148 C167.2161,28.3538 166.2451,28.5598 165.3691,28.8348 C164.4921,29.1108 163.7721,29.5058 163.2091,30.0188 C162.6451,30.5318 162.3641,31.2638 162.3641,32.2158 C162.3641,32.8168 162.4821,33.3488 162.7211,33.8118 C162.9591,34.2758 163.2781,34.6758 163.6791,35.0138 C164.0791,35.3518 164.5431,35.6088 165.0681,35.7838 C165.5951,35.9598 166.1331,36.0468 166.6831,36.0468 C167.5851,36.0468 168.4491,35.9098 169.2751,35.6338 C170.1011,35.3588 170.8211,34.9578 171.4341,34.4318 C172.0481,33.9058 172.5371,33.2668 172.9001,32.5158 C173.2631,31.7648 173.4441,30.9138 173.4441,29.9618 L173.4441,26.8818 L173.3691,26.8818 Z M161.5381,21.0978 C161.9381,20.2718 162.4821,19.5948 163.1721,19.0698 C163.8601,18.5438 164.6681,18.1558 165.5951,17.9048 C166.5201,17.6548 167.5481,17.5288 168.6751,17.5288 C169.5251,17.5288 170.3771,17.6108 171.2281,17.7738 C172.0791,17.9368 172.8441,18.2428 173.5191,18.6938 C174.1951,19.1448 174.7461,19.7778 175.1721,20.5908 C175.5981,21.4048 175.8101,22.4628 175.8101,23.7648 L175.8101,34.0558 C175.8101,35.0078 176.2731,35.4838 177.2001,35.4838 C177.4751,35.4838 177.7261,35.4338 177.9521,35.3328 L177.9521,37.3238 C177.6761,37.3748 177.4311,37.4118 177.2201,37.4368 C177.0061,37.4618 176.7371,37.4738 176.4121,37.4738 C175.8101,37.4738 175.3281,37.3928 174.9661,37.2298 C174.6021,37.0678 174.3201,36.8358 174.1211,36.5348 C173.9201,36.2348 173.7881,35.8778 173.7261,35.4648 C173.6631,35.0508 173.6331,34.5948 173.6331,34.0938 L173.5571,34.0938 C173.1311,34.7198 172.6991,35.2768 172.2621,35.7648 C171.8231,36.2538 171.3351,36.6608 170.7971,36.9858 C170.2581,37.3118 169.6441,37.5618 168.9561,37.7368 C168.2661,37.9118 167.4471,37.9998 166.4961,37.9998 C165.5951,37.9998 164.7491,37.8928 163.9611,37.6808 C163.1721,37.4678 162.4821,37.1308 161.8941,36.6668 C161.3061,36.2038 160.8431,35.6148 160.5051,34.9018 C160.1671,34.1878 159.9981,33.3418 159.9981,32.3658 C159.9981,31.0138 160.2981,29.9558 160.8991,29.1918 C161.5001,28.4288 162.2951,27.8458 163.2841,27.4448 C164.2731,27.0458 165.3881,26.7638 166.6271,26.5998 C167.8671,26.4378 169.1251,26.2808 170.4021,26.1308 C170.9021,26.0808 171.3411,26.0178 171.7171,25.9428 C172.0931,25.8678 172.4051,25.7358 172.6561,25.5488 C172.9061,25.3608 173.0991,25.1048 173.2381,24.7788 C173.3751,24.4538 173.4441,24.0278 173.4441,23.5018 C173.4441,22.7008 173.3131,22.0428 173.0501,21.5298 C172.7871,21.0168 172.4241,20.6098 171.9611,20.3088 C171.4971,20.0078 170.9591,19.8018 170.3461,19.6888 C169.7311,19.5768 169.0741,19.5198 168.3741,19.5198 C166.8711,19.5198 165.6441,19.8768 164.6931,20.5908 C163.7411,21.3038 163.2401,22.4498 163.1901,24.0278 L160.8241,24.0278 C160.8991,22.9008 161.1371,21.9238 161.5381,21.0978 L161.5381,21.0978 Z" id="Fill-11"></path>
            <polygon id="Fill-13" points="182.947 37.474 180.581 37.474 180.581 10.656 182.947 10.656"></polygon>
            <path d="M216.8828,16.0083 C216.3688,15.1953 215.7428,14.5123 215.0048,13.9613 C214.2658,13.4103 213.4518,12.9913 212.5638,12.7033 C211.6738,12.4153 210.7408,12.2713 209.7648,12.2713 C207.9868,12.2713 206.4598,12.6093 205.1828,13.2853 C203.9048,13.9613 202.8598,14.8573 202.0458,15.9703 C201.2328,17.0853 200.6308,18.3433 200.2428,19.7453 C199.8548,21.1483 199.6608,22.5883 199.6608,24.0653 C199.6608,25.5173 199.8548,26.9513 200.2428,28.3653 C200.6308,29.7803 201.2328,31.0453 202.0458,32.1593 C202.8598,33.2743 203.9048,34.1693 205.1828,34.8443 C206.4598,35.5213 207.9868,35.8593 209.7648,35.8593 C211.0168,35.8593 212.1438,35.6333 213.1458,35.1833 C214.1468,34.7323 215.0108,34.1193 215.7368,33.3423 C216.4628,32.5663 217.0518,31.6583 217.5018,30.6193 C217.9528,29.5803 218.2398,28.4593 218.3658,27.2583 L220.9208,27.2583 C220.7448,28.9103 220.3578,30.4003 219.7558,31.7273 C219.1548,33.0543 218.3788,34.1813 217.4278,35.1083 C216.4758,36.0343 215.3558,36.7483 214.0658,37.2483 C212.7758,37.7493 211.3428,38.0003 209.7648,38.0003 C207.6608,38.0003 205.8148,37.6173 204.2248,36.8543 C202.6338,36.0913 201.3138,35.0703 200.2618,33.7933 C199.2098,32.5163 198.4218,31.0393 197.8958,29.3613 C197.3698,27.6833 197.1078,25.9183 197.1078,24.0653 C197.1078,22.2123 197.3698,20.4463 197.8958,18.7693 C198.4218,17.0913 199.2098,15.6083 200.2618,14.3183 C201.3138,13.0293 202.6338,12.0023 204.2248,11.2373 C205.8148,10.4743 207.6608,10.0923 209.7648,10.0923 C211.0418,10.0923 212.2868,10.2803 213.5018,10.6553 C214.7168,11.0313 215.8188,11.5893 216.8078,12.3273 C217.7968,13.0663 218.6228,13.9743 219.2858,15.0503 C219.9498,16.1273 220.3688,17.3663 220.5448,18.7693 L217.9898,18.7693 C217.7658,17.7423 217.3958,16.8223 216.8828,16.0083" id="Fill-15"></path>
            <path d="M237.8408,23.8398 C237.5528,23.0128 237.1468,22.2808 236.6198,21.6418 C236.0948,21.0038 235.4558,20.4908 234.7048,20.1028 C233.9538,19.7148 233.1028,19.5198 232.1508,19.5198 C231.1738,19.5198 230.3108,19.7148 229.5588,20.1028 C228.8078,20.4908 228.1688,21.0038 227.6438,21.6418 C227.1168,22.2808 226.6978,23.0198 226.3848,23.8588 C226.0718,24.6978 225.8648,25.5548 225.7658,26.4308 L238.3108,26.4308 C238.2848,25.5298 238.1288,24.6658 237.8408,23.8398 M226.1218,31.0698 C226.3608,31.9848 226.7418,32.8038 227.2678,33.5298 C227.7938,34.2568 228.4568,34.8578 229.2588,35.3328 C230.0598,35.8088 231.0248,36.0468 232.1508,36.0468 C233.8788,36.0468 235.2308,35.5958 236.2068,34.6948 C237.1838,33.7928 237.8608,32.5908 238.2358,31.0888 L240.6018,31.0888 C240.1008,33.2928 239.1808,34.9948 237.8408,36.1968 C236.5008,37.3988 234.6048,37.9998 232.1508,37.9998 C230.6228,37.9998 229.3018,37.7308 228.1888,37.1928 C227.0728,36.6538 226.1658,35.9158 225.4648,34.9768 C224.7638,34.0368 224.2438,32.9478 223.9058,31.7088 C223.5688,30.4688 223.3998,29.1608 223.3998,27.7838 C223.3998,26.5068 223.5688,25.2548 223.9058,24.0268 C224.2438,22.8008 224.7638,21.7048 225.4648,20.7408 C226.1658,19.7778 227.0728,19.0008 228.1888,18.4118 C229.3018,17.8238 230.6228,17.5288 232.1508,17.5288 C233.7028,17.5288 235.0298,17.8428 236.1318,18.4678 C237.2338,19.0948 238.1288,19.9148 238.8178,20.9288 C239.5058,21.9428 240.0008,23.1078 240.3018,24.4218 C240.6018,25.7358 240.7268,27.0698 240.6768,28.4218 L225.7658,28.4218 C225.7658,29.2738 225.8838,30.1558 226.1218,31.0698" id="Fill-16"></path>
            <path d="M245.4473,18.0928 L245.4473,21.4358 L245.5223,21.4358 C245.9733,20.2598 246.7743,19.3138 247.9263,18.5998 C249.0783,17.8858 250.3433,17.5298 251.7203,17.5298 C253.0723,17.5298 254.2053,17.7048 255.1193,18.0548 C256.0333,18.4058 256.7653,18.9008 257.3163,19.5388 C257.8673,20.1768 258.2563,20.9608 258.4813,21.8858 C258.7063,22.8128 258.8193,23.8528 258.8193,25.0038 L258.8193,37.4738 L256.4533,37.4738 L256.4533,25.3798 C256.4533,24.5528 256.3783,23.7828 256.2273,23.0698 C256.0773,22.3558 255.8143,21.7368 255.4383,21.2108 C255.0633,20.6848 254.5553,20.2718 253.9183,19.9708 C253.2793,19.6708 252.4833,19.5198 251.5323,19.5198 C250.5803,19.5198 249.7353,19.6888 248.9973,20.0278 C248.2583,20.3648 247.6323,20.8288 247.1193,21.4168 C246.6053,22.0058 246.2053,22.7068 245.9173,23.5208 C245.6293,24.3348 245.4723,25.2168 245.4473,26.1688 L245.4473,37.4738 L243.0813,37.4738 L243.0813,18.0928 L245.4473,18.0928 Z" id="Fill-17"></path>
            <path d="M270.9883,18.0928 L270.9883,20.0838 L267.0453,20.0838 L267.0453,33.1548 C267.0453,33.9308 267.1513,34.5388 267.3643,34.9768 C267.5763,35.4148 268.1083,35.6588 268.9603,35.7088 C269.6363,35.7088 270.3123,35.6718 270.9883,35.5958 L270.9883,37.5868 C270.6373,37.5868 270.2873,37.5988 269.9373,37.6248 C269.5863,37.6488 269.2353,37.6618 268.8853,37.6618 C267.3073,37.6618 266.2063,37.3558 265.5803,36.7418 C264.9543,36.1288 264.6533,34.9948 264.6783,33.3428 L264.6783,20.0838 L261.2983,20.0838 L261.2983,18.0928 L264.6783,18.0928 L264.6783,12.2708 L267.0453,12.2708 L267.0453,18.0928 L270.9883,18.0928 Z" id="Fill-18"></path>
            <path d="M287.8711,23.8398 C287.5831,23.0128 287.1771,22.2808 286.6501,21.6418 C286.1251,21.0038 285.4861,20.4908 284.7351,20.1028 C283.9841,19.7148 283.1331,19.5198 282.1811,19.5198 C281.2041,19.5198 280.3411,19.7148 279.5891,20.1028 C278.8381,20.4908 278.1991,21.0038 277.6741,21.6418 C277.1471,22.2808 276.7281,23.0198 276.4151,23.8588 C276.1021,24.6978 275.8951,25.5548 275.7961,26.4308 L288.3411,26.4308 C288.3151,25.5298 288.1591,24.6658 287.8711,23.8398 M276.1521,31.0698 C276.3911,31.9848 276.7721,32.8038 277.2981,33.5298 C277.8241,34.2568 278.4871,34.8578 279.2891,35.3328 C280.0901,35.8088 281.0551,36.0468 282.1811,36.0468 C283.9091,36.0468 285.2611,35.5958 286.2371,34.6948 C287.2141,33.7928 287.8911,32.5908 288.2661,31.0888 L290.6321,31.0888 C290.1311,33.2928 289.2111,34.9948 287.8711,36.1968 C286.5311,37.3988 284.6351,37.9998 282.1811,37.9998 C280.6531,37.9998 279.3321,37.7308 278.2191,37.1928 C277.1031,36.6538 276.1961,35.9158 275.4951,34.9768 C274.7941,34.0368 274.2741,32.9478 273.9361,31.7088 C273.5991,30.4688 273.4301,29.1608 273.4301,27.7838 C273.4301,26.5068 273.5991,25.2548 273.9361,24.0268 C274.2741,22.8008 274.7941,21.7048 275.4951,20.7408 C276.1961,19.7778 277.1031,19.0008 278.2191,18.4118 C279.3321,17.8238 280.6531,17.5288 282.1811,17.5288 C283.7331,17.5288 285.0601,17.8428 286.1621,18.4678 C287.2641,19.0948 288.1591,19.9148 288.8481,20.9288 C289.5361,21.9428 290.0311,23.1078 290.3321,24.4218 C290.6321,25.7358 290.7571,27.0698 290.7071,28.4218 L275.7961,28.4218 C275.7961,29.2738 275.9141,30.1558 276.1521,31.0698" id="Fill-19"></path>
            <path d="M295.3281,18.0928 L295.3281,22.6378 L295.4021,22.6378 C296.0041,21.0598 296.9361,19.8458 298.2011,18.9938 C299.4651,18.1438 300.9741,17.7548 302.7271,17.8298 L302.7271,20.1968 C301.6501,20.1468 300.6741,20.2898 299.7981,20.6288 C298.9211,20.9668 298.1631,21.4488 297.5251,22.0738 C296.8871,22.7008 296.3911,23.4458 296.0411,24.3088 C295.6901,25.1728 295.5151,26.1188 295.5151,27.1448 L295.5151,37.4738 L293.1491,37.4738 L293.1491,18.0928 L295.3281,18.0928 Z" id="Fill-20"></path>
        </g>
    </g>
</svg>
