<?xml version="1.0" encoding="utf-8"?>
<!-- Generator: Adobe Illustrator 21.0.0, SVG Export Plug-In . SVG Version: 6.00 Build 0)  -->
<svg version="1.1" id="Layer_1" xmlns="http://www.w3.org/2000/svg" xmlns:xlink="http://www.w3.org/1999/xlink" x="0px" y="0px"
	 viewBox="0 0 221.5 63.5" style="enable-background:new 0 0 221.5 63.5;" xml:space="preserve">
<style type="text/css">
	.st0{fill:#052049;}
</style>
<path class="st0" d="M121.4,26.1c-0.1,3.1,2.2,4.1,5,4.1c1.6,0,4-0.9,4-3.1c0-1.7-1.7-2.4-3.1-2.7l-3.4-0.8
	c-1.8-0.4-3.4-1.3-3.4-3.7c0-1.5,1-4.3,5.2-4.3c3,0,5.6,1.6,5.6,4.7h-1.4c-0.1-2.3-2-3.5-4.1-3.5c-2,0-3.8,0.8-3.8,3
	c0,1.4,1.1,2,2.3,2.3l3.7,0.9c2.1,0.6,3.9,1.5,3.9,4c0,1-0.4,4.3-5.8,4.3c-3.6,0-6.2-1.6-6.1-5.3H121.4z M141.8,23.6
	c-0.4-1.6-1.4-2.6-3.1-2.6c-2.6,0-3.9,2.3-3.9,4.7c0,2.3,1.3,4.7,3.9,4.7c1.7,0,3-1.3,3.2-3.1h1.3c-0.4,2.6-2.1,4.3-4.5,4.3
	c-3.4,0-5.2-2.7-5.2-5.8c0-3.1,1.8-5.8,5.2-5.8c2.3,0,4.1,1.3,4.4,3.8H141.8z M145.6,15.9h1.3V22h0c0.5-1.3,2-2.2,3.5-2.2
	c3.1,0,4,1.6,4,4.2v7.1h-1.3v-6.9c0-1.9-0.6-3.3-2.8-3.3c-2.1,0-3.4,1.6-3.4,3.8v6.4h-1.3V15.9z M167.5,25.6c0,3.1-1.8,5.8-5.2,5.8
	c-3.4,0-5.2-2.7-5.2-5.8c0-3.1,1.8-5.8,5.2-5.8C165.6,19.8,167.5,22.5,167.5,25.6z M158.4,25.6c0,2.3,1.3,4.7,3.9,4.7
	c2.6,0,3.9-2.3,3.9-4.7c0-2.3-1.3-4.7-3.9-4.7C159.7,20.9,158.4,23.3,158.4,25.6z M179.6,25.6c0,3.1-1.8,5.8-5.2,5.8
	c-3.4,0-5.2-2.7-5.2-5.8c0-3.1,1.8-5.8,5.2-5.8C177.8,19.8,179.6,22.5,179.6,25.6z M170.6,25.6c0,2.3,1.3,4.7,3.9,4.7
	c2.6,0,3.9-2.3,3.9-4.7c0-2.3-1.3-4.7-3.9-4.7C171.8,20.9,170.6,23.3,170.6,25.6z M182.2,15.9h1.3v15.2h-1.3V15.9z M202.5,25.6
	c0,3.1-1.8,5.8-5.2,5.8c-3.4,0-5.2-2.7-5.2-5.8c0-3.1,1.8-5.8,5.2-5.8C200.6,19.8,202.5,22.5,202.5,25.6z M193.4,25.6
	c0,2.3,1.3,4.7,3.9,4.7c2.6,0,3.9-2.3,3.9-4.7c0-2.3-1.3-4.7-3.9-4.7C194.7,20.9,193.4,23.3,193.4,25.6z M209.2,21.3h-2.2v9.9h-1.3
	v-9.9h-1.9v-1.1h1.9v-1c0-1.9,0.5-3.2,2.7-3.2c0.4,0,0.7,0,1.1,0.1v1.1c-0.4-0.1-0.7-0.1-1-0.1c-1.5,0-1.4,0.9-1.5,2.1v1h2.2V21.3z
	 M120.7,38.6h5.3c4.6,0.1,7,2.6,7,7.6s-2.4,7.5-7,7.6h-5.3V38.6z M122.2,52.6h3.1c4.4,0,6.3-1.8,6.3-6.4s-1.9-6.4-6.3-6.4h-3.1V52.6
	z M136.2,48.7c0,2,1,4.3,3.6,4.3c2,0,3-1.1,3.4-2.8h1.3c-0.6,2.5-2,3.9-4.8,3.9c-3.5,0-5-2.7-5-5.8c0-2.9,1.5-5.8,5-5.8
	c3.5,0,4.9,3.1,4.8,6.2H136.2z M143.3,47.5c-0.1-2-1.3-3.9-3.5-3.9c-2.2,0-3.4,1.9-3.6,3.9H143.3z M146.9,42.8h1.3v1.9h0
	c0.5-1.3,2-2.2,3.5-2.2c3.1,0,4,1.6,4,4.2v7.1h-1.3V47c0-1.9-0.6-3.3-2.8-3.3c-2.1,0-3.4,1.6-3.4,3.8v6.4h-1.3V42.8z M161,42.8h2.2
	V44H161v7.4c0,0.9,0.1,1.4,1.1,1.4c0.4,0,0.8,0,1.1-0.1v1.1c-0.4,0-0.8,0-1.2,0c-1.8,0-2.4-0.6-2.4-2.5V44h-1.9v-1.1h1.9v-3.3h1.3
	V42.8z M165.7,38.6h1.3v2.1h-1.3V38.6z M165.7,42.8h1.3v11h-1.3V42.8z M176.8,46c-0.1-1.7-1.3-2.4-2.9-2.4c-1.2,0-2.6,0.5-2.6,1.9
	c0,1.2,1.4,1.6,2.3,1.9l1.8,0.4c1.5,0.2,3.1,1.1,3.1,3c0,2.4-2.4,3.3-4.4,3.3c-2.6,0-4.3-1.2-4.5-3.9h1.3c0.1,1.8,1.4,2.7,3.2,2.7
	c1.3,0,3-0.6,3-2.1c0-1.3-1.2-1.7-2.4-2l-1.7-0.4c-1.7-0.5-3.1-1.1-3.1-2.9c0-2.2,2.2-3.1,4.1-3.1c2.2,0,3.9,1.1,4,3.5H176.8z
	 M183.1,42.8h2.2V44h-2.2v7.4c0,0.9,0.1,1.4,1.1,1.4c0.4,0,0.8,0,1.1-0.1v1.1c-0.4,0-0.8,0-1.2,0c-1.8,0-2.4-0.6-2.4-2.5V44h-1.9
	v-1.1h1.9v-3.3h1.3V42.8z M187.8,42.8h1.2v2.6h0c0.7-1.8,2.2-2.8,4.1-2.7V44c-2.4-0.1-4.1,1.7-4.1,3.9v5.9h-1.3V42.8z M194,42.8h1.4
	l3.6,9.4l3.4-9.4h1.3L199,55.5c-0.8,1.9-1.2,2.4-2.9,2.4c-0.5,0-0.8,0-1-0.1v-1.1c0.3,0.1,0.6,0.1,0.9,0.1c1.2,0,1.5-0.7,1.9-1.7
	l0.5-1.3L194,42.8z M105.6,22.5v-6H82.7v22.2c-0.1-2.6-1.1-4.6-2.9-6c-1.2-1-3.1-1.8-5.6-2.4l-5.7-1.3c-2.2-0.5-3.6-1-4.3-1.3
	c-0.6-0.3-1.1-0.8-1.3-1.3l0,0c0,0,0,0,0,0l0,0c-0.2-0.4-0.3-0.8-0.3-1.3c0-1,0.3-1.8,1-2.5l0,0c0,0,0,0,0,0l0,0c0,0,0,0,0,0
	c0.2-0.1,0.3-0.3,0.5-0.4c1.1-0.7,2.5-1.1,4.3-1.1c1.6,0,3,0.3,4,0.8c1.6,0.8,2.5,2.2,2.6,4.2h6.5c-0.1-3.4-1.4-6.1-3.8-7.9
	c-2.4-1.8-5.4-2.7-8.9-2.7c-4.1,0-7.3,1-9.4,2.9c-1.3,1.2-2.2,2.5-2.7,4.1h0c-0.1,0.3-0.2,0.7-0.3,1h0c-0.8,3.7-3.2,6.3-7.2,6.3
	c-6.4,0-8.9-5.5-8.9-10.9c0-5.7,2.4-11.2,8.9-11.2c3.6,0,6.7,2.5,7.1,5.7h6.9C62.5,5.7,56.5,1.5,49.3,1.5c-9.6,0-15.5,6.9-16,15.9
	V2.3h-7.2v20.3c0,4.8-1.6,7.1-6.8,7.1c-5.8,0-6.7-3.5-6.7-7.1V2.3H5.5v20.3c0,8.9,5.1,13.1,13.9,13.1c8.7,0,13.9-4.3,13.9-13.1V20
	c0.5,8.8,6.4,15.7,16,15.7c4,0,7.3-1.3,9.8-3.6c0.2,0.1,0.3,0.2,0.5,0.4c1.3,0.9,3.7,1.7,7.1,2.5l3.5,0.8c2.1,0.4,3.6,0.9,4.5,1.5
	c0.9,0.6,1.4,1.4,1.4,2.5c0,1.8-1,3.1-2.9,3.8c-1,0.4-2.3,0.5-4,0.5c-2.7,0-4.6-0.7-5.8-2c-0.6-0.7-1-1.8-1.2-3.3h-6.5
	c0,3.4,1.2,6,3.7,8c2.4,1.9,5.8,2.9,10.1,2.9c4.2,0,7.4-1,9.7-2.9c2.1-1.8,3.2-4,3.4-6.7v9.1h7.2V35.6h13.7V30H89.8v-7.5H105.6z"/>
</svg>
